# xmcd
#
# Track frame offsets:
#	150
#	38368
#	60607
#	75149
#	112051
#	137927
#	162121
#	217813
#
# Disc length: 3219 seconds
#
# Revision: 0
# Processed by: cddbd v1.5.2PL0 Copyright (c) Steve Scherf et al.
# Submitted via: EZCDAudioConverter 1.0.4.1
#
DISCID=5b0c9108
DTITLE=Daidal
DYEAR=2013
DGENRE=Electronic
TTITLE0=Skopos
TTITLE1=Ploïon
TTITLE2=Akti
TTITLE3=Nikta
TTITLE4=Daidal
TTITLE5=Xiphos
TTITLE6=Ptosis
TTITLE7=Epistrophie
EXTD=
EXTT0=
EXTT1=
EXTT2=
EXTT3=
EXTT4=
EXTT5=
EXTT6=
EXTT7=
PLAYORDER=
